<svg width="40" height="40" viewBox="0 0 40 40" fill="none" xmlns="http://www.w3.org/2000/svg">
<path d="M20 37.3333C29.5729 37.3333 37.3333 29.5729 37.3333 20C37.3333 10.4271 29.5729 2.66667 20 2.66667C10.4271 2.66667 2.66667 10.4271 2.66667 20C2.66667 29.5729 10.4271 37.3333 20 37.3333Z" stroke="#162F71"/>
<path d="M5.33334 17.3333H0V22.6667H5.33334V17.3333Z" fill="#162F71"/>
<path d="M40 17.3333H34.6667V22.6667H40V17.3333Z" fill="#162F71"/>
<path d="M14.415 24.8669C17.2301 24.8669 18.9759 23.0371 18.9759 19.9952C18.9759 16.9582 17.2301 15.1331 14.4105 15.1331H11V24.8669H14.415ZM13.2331 22.8612V17.1388H14.2977C15.8857 17.1388 16.7383 17.8992 16.7383 19.9952C16.7383 22.1008 15.8857 22.8612 14.3293 22.8612H13.2331Z" fill="#162F71"/>
<path d="M29 20C29 16.7823 27.0692 15 24.588 15C22.0977 15 20.1805 16.7823 20.1805 20C20.1805 23.2034 22.0977 25 24.588 25C27.0692 25 29 23.2177 29 20ZM26.7173 20C26.7173 21.9059 25.9233 22.9373 24.588 22.9373C23.2571 22.9373 22.4586 21.9059 22.4586 20C22.4586 18.0941 23.2571 17.0627 24.588 17.0627C25.9233 17.0627 26.7173 18.0941 26.7173 20Z" fill="#162F71"/>
</svg>
